# AST/ASF file generated using VICON BodyLanguage
# -----------------------------------------------
:version 1.10
:name VICON
:units
  mass 1.0
  length 0.45
  angle deg
:documentation
   .ast/.asf automatically generated from VICON data using
   VICON BodyBuilder and BodyLanguage model FoxedUp or BRILLIANT.MOD
:root
   order TX TY TZ RX RY RZ
   axis XYZ
   position 0 0 0  
   orientation 0 0 0 
:bonedata
  begin
     id 1 
     name lhipjoint
     direction 0.623415 -0.642378 0.445763 
     length 2.49859 
     axis 0 0 0  XYZ
  end
  begin
     id 2 
     name lfemur
     direction 0.34202 -0.939693 0  
     length 6.69689  
     axis 0 0 20  XYZ
    dof rx ry rz
    limits (-160.0 20.0)
           (-70.0 70.0)
           (-60.0 70.0)
  end
  begin
     id 3 
     name ltibia
     direction 0.34202 -0.939693 0   
     length 7.37574   
     axis 0 0 20   XYZ
    dof rx
    limits (-10.0 170.0)
  end
  begin
     id 4 
     name lfoot
     direction 0.084323 -0.231675 0.969132   
     length 2.09111   
     axis -90 7.62852e-016 20   XYZ
    dof rx rz
    limits (-45.0 90.0)
           (-70.0 20.0)
  end
  begin
     id 5 
     name ltoes
     direction 1.5357e-011 -4.21957e-011 1   
     length 1.04989   
     axis -90 7.62852e-016 20   XYZ
    dof rx
    limits (-90.0 20.0)
  end
  begin
     id 6 
     name rhipjoint
     direction -0.605402 -0.653903 0.45376   
     length 2.45455  
     axis 0 0 0  XYZ 
  end
  begin
     id 7 
     name rfemur
     direction -0.34202 -0.939693 0   
     length 6.64523   
     axis 0 0 -20   XYZ
    dof rx ry rz
    limits (-160.0 20.0)
           (-70.0 70.0)
           (-70.0 60.0)
  end
  begin
     id 8 
     name rtibia
     direction -0.34202 -0.939693 0   
     length 7.3339   
     axis 0 0 -20   XYZ
    dof rx
    limits (-10.0 170.0)
 end
 begin
     id 9 
     name rfoot
     direction -0.120854 -0.332043 0.93549   
     length 2.23135  
     axis -90 -7.62852e-016 -20   XYZ
    dof rx rz
    limits (-45.0 90.0)
           (-20.0 70.0)
  end
  begin
     id 10 
     name rtoes
     direction -1.53563e-011 -4.21914e-011 1   
     length 1.10614   
     axis -90 -7.62852e-016 -20   XYZ
    dof rx
    limits (-90.0 20.0)
  end
  begin
     id 11 
     name lowerback
     direction 0.0319682 0.998615 -0.0417941   
     length 2.02718   
     axis 0 0 0   XYZ
    dof rx ry rz
    limits (-20.0 45.0)
           (-30.0 30.0)
           (-30.0 30.0)
  end
  begin
     id 12 
     name upperback
     direction 7.63181e-005 0.995808 0.0914691   
     length 1.97539   
     axis 0 0 0   XYZ
    dof rx ry rz
    limits (-20.0 45.0)
           (-30.0 30.0)
           (-30.0 30.0)
  end
  begin
     id 13 
     name thorax
     direction -0.016423 0.993627 0.111514   
     length 2.00349   
     axis 0 0 0   XYZ
    dof rx ry rz
    limits (-20.0 45.0)
           (-30.0 30.0)
           (-30.0 30.0)
  end
  begin
     id 14 
     name lowerneck
     direction -0.174763 0.981668 -0.0760716   
     length 1.71436   
     axis 0 0 0   XYZ
    dof rx ry rz
    limits (-20.0 45.0)
           (-30.0 30.0)
           (-30.0 30.0)
  end
  begin
     id 15 
     name upperneck
     direction 0.345458 0.934587 -0.0848868   
     length 1.72805   
     axis 0 0 0   XYZ
    dof rx ry rz
    limits (-20.0 45.0)
           (-30.0 30.0)
           (-30.0 30.0)
  end
  begin
     id 16
     name head
     direction 0.13001 0.989848 -0.0574291  
     length 1.767  
     axis 0 0 0   XYZ
    dof rx ry rz
    limits (-20.0 45.0)
           (-30.0 30.0)
           (-30.0 30.0)
  end
  begin
     id 17 
     name lclavicle
     direction 0.952951 0.290122 0.0878234  
     length 3.54654  
     axis 0 0 0   XYZ
    dof ry rz
    limits (-20.0 10.0)
           (0.0 20.0)
  end
  begin
     id 18 
     name lhumerus
     direction 1 -4.48957e-011 -4.56525e-028   
     length 5.19807   
     axis 180 -30 -90   XYZ
    dof rx ry rz
    limits (-60.0 90.0)
           (-90.0 90.0)
           (-90.0 90.0)
  end
  begin
     id 19
     name lradius
     direction 1 -4.48979e-011 -2.0317e-027   
     length 3.0937   
     axis 180 -30 -90   XYZ
    dof rx
    limits (-10.0 170.0)
  end
  begin
     id 20
     name lwrist
     direction 1 -4.48953e-011 -3.05809e-027   
     length 1.54685   
     axis 8.48514e-016 90 90   XYZ
    dof ry
    limits (-180.0 0.0)
 end
  begin
     id 21 
     name lhand
     direction 1 -4.48952e-011 -6.11639e-027   
     length 0.672632   
     axis 3.9013e-015 90 90   XYZ
    dof rx rz
    limits (-90.0 90.0)
           (-45.0 45.0)
  end
  begin
     id 22 
     name lfingers
     direction 1 -4.48925e-011 -1.22426e-026   
     length 0.542293   
     axis 7.80276e-015 90 90   XYZ
    dof rx
    limits (0.0 90.0)
  end
  begin
     id 23
     name lthumb
     direction 0.707107 -6.3486e-011 0.707107   
     length 0.778628   
     axis -90 45 5.37419e-014   XYZ
    dof rx rz
    limits (-45.0 45.0)
           (-45.0 45.0)
  end
  begin
     id 24 
     name rclavicle
     direction -0.960732 0.273675 -0.0457849   
     length 3.52079  
     axis 0 0 0   XYZ 
    dof ry rz
    limits (-10.0 20.0)
           (-20.0 0.0)
  end
  begin
     id 25 
     name rhumerus
     direction -1 -4.48976e-011 -1.63613e-027  
     length 5.45222   
     axis 180 30 90   XYZ
    dof rx ry rz
    limits (-90.0 60.0)
           (-90.0 90.0)
           (-90.0 90.0)
  end
  begin
     id 26 
     name rradius
     direction -1 -4.48957e-011 -7.00033e-028   
     length 3.01284   
     axis 180 30 90   XYZ
    dof rx
    limits (-10.0 170.0)
  end
  begin
     id 27 
     name rwrist
     direction -1 -4.48983e-011 -3.05543e-027   
     length 1.50642   
     axis 8.48514e-016 -90 -90   XYZ
    dof ry
    limits (-180.0 0.0)
  end
  begin
     id 28
     name rhand
     direction -1 -4.48984e-011 -6.11072e-027   
     length 0.622296   
     axis 3.9013e-015 -90 -90   XYZ
    dof rx rz
    limits (-90.0 90.0)
           (-45.0 45.0)
  end
  begin
     id 29
     name rfingers
     direction -1 -4.48865e-011 -1.22637e-026   
     length 0.501711   
     axis 7.80276e-015 -90 -90   XYZ
    dof rx
    limits (0.0 90.0)
  end
  begin
     id 30
     name rthumb
     direction -0.707107 -6.34932e-011 0.707107   
     length 0.72036   
     axis -90 -45 -5.37419e-014   XYZ
    dof rx rz
    limits (-45.0 45.0)
           (-45.0 45.0)
  end
:hierarchy
  begin
    root lhipjoint rhipjoint lowerback
    lhipjoint lfemur
    lfemur ltibia
    ltibia lfoot
    lfoot ltoes
    rhipjoint rfemur
    rfemur rtibia
    rtibia rfoot
    rfoot rtoes
    lowerback upperback
    upperback thorax
    thorax lowerneck lclavicle rclavicle
    lowerneck upperneck
    upperneck head
    lclavicle lhumerus
    lhumerus lradius
    lradius lwrist
    lwrist lhand lthumb
    lhand lfingers
    rclavicle rhumerus
    rhumerus rradius
    rradius rwrist
    rwrist rhand rthumb
    rhand rfingers
  end

#!OML:ASF H:\Not Pregnant\Project 1\Capture day 1\Session 1\non-pregnant.ASF
:FULLY-SPECIFIED
:DEGREES
44
root -5.4713 15.5711 37.181 -170.404 -3.32358 -182.448
lowerback -0.103335 0.32096 -3.04918
upperback -5.62151 -0.0682902 -1.35536
thorax -5.77419 -0.0661205 0.317284
lowerneck 26.6159 -6.61024 -29.2674
upperneck -16.211 -19.6857 45.0082
head -0.592936 -14.5504 25.5605
rclavicle -1.75179e-015 -1.03368e-014
rhumerus -39.3761 -15.3824 -78.953
rradius 26.6619
rwrist 23.3134
rhand -8.26519 -1.44718
rfingers 7.12502
rthumb 17.6537 -30.6658
lclavicle -1.75179e-015 -1.03368e-014
lhumerus -42.4305 -10.942 90.9211
lradius 29.071
lwrist 33.5177
lhand -15.1799 -9.76073
lfingers 7.12502
lthumb 10.9913 19.9315
rfemur -42.6418 -2.55153 18.8986
rtibia 61.3304
rfoot -14.8883 6.2351
rtoes -23.9762
lfemur -12.1924 -0.190722 -26.6236
ltibia 26.484
lfoot -24.1259 -10.2244
ltoes 2.30621
45
root -5.47606 15.5725 37.1199 -170.429 -3.38874 -182.35
lowerback -0.0673313 0.282841 -3.00729
upperback -5.62474 -0.11528 -1.31104
thorax -5.79645 -0.0889935 0.342114
lowerneck 26.4883 -6.65866 -29.3025
upperneck -15.9854 -19.7523 44.9205
head -0.486948 -14.5543 25.4146
rclavicle -1.59028e-015 -2.78299e-015
rhumerus -39.6336 -15.6978 -78.6766
rradius 26.4873
rwrist 23.5388
rhand -8.16348 -1.38717
rfingers 7.12502
rthumb 17.7515 -30.5969
lclavicle -1.59028e-015 -2.78299e-015
lhumerus -42.3912 -10.7059 90.7745
lradius 28.9144
lwrist 33.309
lhand -15.2194 -9.78596
lfingers 7.12502
lthumb 10.9531 19.9083
rfemur -43.029 -2.70513 19.3228
rtibia 60.0888
rfoot -15.1047 5.91989
rtoes -23.7615
lfemur -11.8201 -0.238841 -26.5135
ltibia 26.2565
lfoot -24.0835 -10.2387
ltoes 2.29542
46
root -5.48025 15.5738 37.0576 -170.438 -3.43514 -182.254
lowerback -0.0536883 0.253423 -2.97793
upperback -5.63238 -0.151444 -1.26924
thorax -5.811 -0.10651 0.37085
lowerneck 26.4059 -6.68069 -29.3281
upperneck -15.8151 -19.7911 44.8617
head -0.414641 -14.5549 25.3219
rclavicle 9.82742e-015 -4.96962e-015
rhumerus -39.8953 -15.9994 -78.3952
rradius 26.2949
rwrist 23.7885
rhand -8.05992 -1.34189
rfingers 7.12502
rthumb 17.8512 -30.5426
lclavicle 9.82742e-015 -4.96962e-015
lhumerus -42.3672 -10.4638 90.6297
lradius 28.8094
lwrist 33.1514
lhand -15.2785 -9.82584
lfingers 7.12502
lthumb 10.8962 19.8715
rfemur -43.3979 -2.80357 19.727
rtibia 58.7304
rfoot -15.2923 5.59709
rtoes -23.6687
lfemur -11.4666 -0.265188 -26.4054
ltibia 26.0358
lfoot -24.0494 -10.2533
ltoes 2.22802
47
root -5.48409 15.5746 36.9936 -170.436 -3.461 -182.17
lowerback -0.0534242 0.233806 -2.96422
upperback -5.64397 -0.175881 -1.23366
thorax -5.82252 -0.118075 0.401322
lowerneck 26.3689 -6.67353 -29.3379
upperneck -15.6971 -19.795 44.83
head -0.379588 -14.5489 25.2805
rclavicle -1.78906e-015 9.14409e-015
rhumerus -40.1537 -16.3082 -78.1002
rradius 26.0661
rwrist 24.0749
rhand -7.96371 -1.29493
rfingers 7.12502
rthumb 17.9438 -30.4872
lclavicle -1.78906e-015 9.14409e-015
lhumerus -42.3698 -10.2242 90.4924
lradius 28.7697
lwrist 33.0564
lhand -15.3365 -9.86343
lfingers 7.12502
lthumb 10.8402 19.8368
rfemur -43.741 -2.83619 20.0933
rtibia 57.2713
rfoot -15.4118 5.29119
rtoes -23.6503
lfemur -11.1108 -0.275608 -26.3085
ltibia 25.8002
lfoot -24.0153 -10.2605
ltoes 2.09219
48
root -5.48751 15.5758 36.9281 -170.42 -3.47571 -182.101
lowerback -0.0707015 0.220049 -2.96863
upperback -5.65827 -0.19379 -1.20508
thorax -5.82718 -0.126217 0.434345
lowerneck 26.3826 -6.63892 -29.3344
upperneck -15.6526 -19.7642 44.8301
head -0.386935 -14.537 25.2966
rclavicle -3.31722e-015 -4.17448e-015
rhumerus -40.4071 -16.6195 -77.7942
rradius 25.8066
rwrist 24.3965
rhand -7.88113 -1.248
rfingers 7.12502
rthumb 18.0232 -30.4329
lclavicle -3.31722e-015 -4.17448e-015
lhumerus -42.3975 -9.99268 90.3644
lradius 28.7986
lwrist 33.0287
lhand -15.3802 -9.85366
lfingers 7.12502
lthumb 10.798 19.8488
rfemur -44.0646 -2.81436 20.4102
rtibia 55.7239
rfoot -15.4298 5.04508
rtoes -23.6377
lfemur -10.7458 -0.279493 -26.2266
ltibia 25.529
lfoot -23.9692 -10.2714
ltoes 1.90665
49
root -5.49082 15.5776 36.8606 -170.398 -3.47657 -182.047
lowerback -0.0900454 0.211523 -2.98484
upperback -5.6696 -0.205173 -1.18198
thorax -5.82777 -0.130765 0.467948
lowerneck 26.3589 -6.61708 -29.3344
upperneck -15.6027 -19.7473 44.837
head -0.376848 -14.531 25.3038
rclavicle 1.1865e-014 2.8625e-014
rhumerus -40.6439 -16.9246 -77.4848
rradius 25.5257
rwrist 24.7392
rhand -7.80888 -1.20833
rfingers 7.12502
rthumb 18.0927 -30.3868
lclavicle 1.1865e-014 2.8625e-014
lhumerus -42.4363 -9.77236 90.249
lradius 28.891
lwrist 33.075
lhand -15.409 -9.83468
lfingers 7.12502
lthumb 10.7703 19.8692
rfemur -44.3573 -2.74186 20.6766
rtibia 54.1045
rfoot -15.3315 4.88057
rtoes -23.6055
lfemur -10.3504 -0.272834 -26.1595
ltibia 25.2082
lfoot -23.9134 -10.2808
ltoes 1.63787
50
root -5.49384 15.5803 36.7914 -170.371 -3.47859 -182.008
lowerback -0.110021 0.203782 -3.01062
upperback -5.67906 -0.21619 -1.16596
thorax -5.82611 -0.134949 0.499525
lowerneck 26.2942 -6.62258 -29.3325
upperneck -15.5312 -19.7607 44.8362
head -0.339861 -14.5356 25.2781
rclavicle -4.02539e-015 7.95139e-016
rhumerus -40.8674 -17.2377 -77.1667
rradius 25.2208
rwrist 25.1137
rhand -7.74492 -1.17197
rfingers 7.12502
rthumb 18.1543 -30.3448
lclavicle -4.02539e-015 7.95139e-016
lhumerus -42.4873 -9.57662 90.1481
lradius 29.0392
lwrist 33.204
lhand -15.3822 -9.7957
lfingers 7.12502
lthumb 10.7962 19.9068
rfemur -44.6198 -2.62906 20.8903
rtibia 52.4268
rfoot -15.0994 4.79828
rtoes -23.5259
lfemur -9.92093 -0.263397 -26.1044
ltibia 24.8277
lfoot -23.8366 -10.3066
ltoes 1.32335
51
root -5.49673 15.5836 36.7203 -170.343 -3.48114 -181.979
lowerback -0.124338 0.199425 -3.03615
upperback -5.68901 -0.223523 -1.15865
thorax -5.82836 -0.137594 0.521746
lowerneck 26.1746 -6.66293 -29.3316
upperneck -15.4235 -19.8173 44.8269
head -0.263063 -14.556 25.2096
rclavicle 3.76448e-015 4.37326e-015
rhumerus -41.0877 -17.5606 -76.8412
rradius 24.9055
rwrist 25.516
rhand -7.68371 -1.13598
rfingers 7.12502
rthumb 18.2131 -30.3033
lclavicle 3.76448e-015 4.37326e-015
lhumerus -42.5453 -9.40782 90.0546
lradius 29.2305
lwrist 33.3716
lhand -15.2969 -9.7263
lfingers 7.12502
lthumb 10.8784 19.9719
rfemur -44.8527 -2.47274 21.0551
rtibia 50.7056
rfoot -14.7336 4.78993
rtoes -23.3569
lfemur -9.45389 -0.252339 -26.0577
ltibia 24.3846
lfoot -23.7397 -10.344
ltoes 0.935951
52
root -5.49952 15.5878 36.6477 -170.315 -3.49257 -181.958
lowerback -0.141915 0.195319 -3.05944
upperback -5.69555 -0.230486 -1.15885
thorax -5.82515 -0.140434 0.534901
lowerneck 26.0211 -6.72756 -29.3283
upperneck -15.2884 -19.9019 44.8067
head -0.16126 -14.5853 25.1088
rclavicle 1.6027e-015 -9.93923e-016
rhumerus -41.3021 -17.8879 -76.513
rradius 24.5883
rwrist 25.9248
rhand -7.59123 -1.14394
rfingers 7.12502
rthumb 18.3021 -30.3029
lclavicle 1.6027e-015 -9.93923e-016
lhumerus -42.6074 -9.27162 89.9716
lradius 29.459
lwrist 33.5763
lhand -15.174 -9.64488
lfingers 7.12502
lthumb 10.9969 20.0471
rfemur -45.0591 -2.29533 21.1795
rtibia 48.9521
rfoot -14.2273 4.85251
rtoes -23.0569
lfemur -8.95167 -0.245701 -26.0173
ltibia 23.8826
lfoot -23.6211 -10.4004
ltoes 0.486574
53
root -5.50223 15.5928 36.5737 -170.283 -3.51559 -181.946
lowerback -0.151457 0.189705 -3.08423
upperback -5.71185 -0.241207 -1.16143
thorax -5.83683 -0.145274 0.546649
lowerneck 25.8566 -6.80138 -29.3352
upperneck -15.1353 -20.0053 44.7824
head -0.0431297 -14.622 24.9963
rclavicle 3.97569e-015 5.56597e-015
rhumerus -41.5334 -18.2083 -76.1714
rradius 24.2744
rwrist 26.3357
rhand -7.49449 -1.14937
rfingers 7.12502
rthumb 18.3952 -30.2996
lclavicle 3.97569e-015 5.56597e-015
lhumerus -42.694 -9.16504 89.9109
lradius 29.7179
lwrist 33.8056
lhand -15.0338 -9.54266
lfingers 7.12502
lthumb 11.1322 20.1421
rfemur -45.2458 -2.12049 21.2734
rtibia 47.1782
rfoot -13.5748 4.98588
rtoes -22.6434
lfemur -8.42081 -0.254377 -25.9826
ltibia 23.3259
lfoot -23.4738 -10.4749
ltoes 0.00206852
